<svg height="13" viewBox="0 0 12 13" width="12" xmlns="http://www.w3.org/2000/svg"><path d="m472.772258 12.9463127c.365038-.3650376.956374-.3650376 1.321412 0l4.40481 4.40481 4.40481-4.40481c.365038-.3650376.956374-.3650376 1.321412 0 .365037.3650376.365037.9563742 0 1.3214118l-4.40481 4.40481 4.40481 4.40481c.365037.3650376.365037.9563742 0 1.3214118-.365038.3650376-.956374.3650376-1.321412 0l-4.40481-4.40481-4.40481 4.40481c-.365038.3650376-.956374.3650376-1.321412 0-.365037-.3650376-.365037-.9563742 0-1.3214118l4.40481-4.40481-4.40481-4.40481c-.365037-.3650376-.365037-.9563742 0-1.3214118z" transform="translate(-472.5 -12)"/></svg>